<svg width="512" height="512" viewBox="0 0 512 512" fill="none" xmlns="http://www.w3.org/2000/svg">
<g clip-path="url(#clip0_623_59158)">
<mask id="mask0_623_59158" style="mask-type:luminance" maskUnits="userSpaceOnUse" x="0" y="0" width="512" height="512">
<path d="M256 512C397.385 512 512 397.385 512 256C512 114.615 397.385 0 256 0C114.615 0 0 114.615 0 256C0 397.385 114.615 512 256 512Z" fill="white"/>
</mask>
<g mask="url(#mask0_623_59158)">
<path d="M256 0L0 256V320L32 352L0 384V512L22 504L45 512H68L122 480L176 512H208L256 480L304 512H336L390 480L444 512H512L504 490L512 467V444L480 390L512 336V304L480 256L512 208V176L480 122L512 68V0H256Z" fill="#EEEEEE"/>
<path d="M224 64V128H384L448 64H224ZM224 192L256 256L208 304V512H304V304H512V208H304L320 192H224ZM0 320V384H128L64 448H0V512H45L176 381V336L192 320H0ZM336 336L512 512V467L381 336H336Z" fill="#D80027"/>
<path d="M0 0V256H256V0H0ZM512 68L404 176H512V68ZM404 336L512 444V336H404ZM176 404L68 512H176V404ZM336 404V512H444L336 404Z" fill="#0052B4"/>
<path d="M187 243L244 202H174L231 243L209 176L187 243ZM106 243L163 202H93L150 243L128 176L106 243ZM25 243L82 202H12L69 243L47 176L25 243ZM187 162L244 121H174L231 162L209 95L187 162ZM106 162L163 121H93L150 162L128 95L106 162ZM25 162L82 121H12L69 162L47 95L25 162ZM187 80L244 39H174L231 80L209 13L187 80ZM106 80L163 39H93L150 80L128 13L106 80ZM25 80L82 39H12L69 80L47 13L25 80Z" fill="#EEEEEE"/>
</g>
</g>
<defs>
<clipPath id="clip0_623_59158">
<rect width="512" height="512" fill="white"/>
</clipPath>
</defs>
</svg>
