<svg width="512" height="512" viewBox="0 0 512 512" fill="none" xmlns="http://www.w3.org/2000/svg">
<g clip-path="url(#clip0_623_61402)">
<mask id="mask0_623_61402" style="mask-type:luminance" maskUnits="userSpaceOnUse" x="0" y="0" width="512" height="512">
<path d="M256 512C397.385 512 512 397.385 512 256C512 114.615 397.385 0 256 0C114.615 0 0 114.615 0 256C0 397.385 114.615 512 256 512Z" fill="white"/>
</mask>
<g mask="url(#mask0_623_61402)">
<path d="M0 0H512V512H0V0Z" fill="#EEEEEE"/>
<path d="M256 367.3C317.469 367.3 367.3 317.469 367.3 256C367.3 194.531 317.469 144.7 256 144.7C194.531 144.7 144.7 194.531 144.7 256C144.7 317.469 194.531 367.3 256 367.3Z" fill="#D80027"/>
</g>
</g>
<defs>
<clipPath id="clip0_623_61402">
<rect width="512" height="512" fill="white"/>
</clipPath>
</defs>
</svg>
