<svg width="512" height="512" viewBox="0 0 512 512" fill="none" xmlns="http://www.w3.org/2000/svg">
<g clip-path="url(#clip0_623_62773)">
<mask id="mask0_623_62773" style="mask-type:luminance" maskUnits="userSpaceOnUse" x="0" y="0" width="512" height="512">
<path d="M256 512C397.385 512 512 397.385 512 256C512 114.615 397.385 0 256 0C114.615 0 0 114.615 0 256C0 397.385 114.615 512 256 512Z" fill="white"/>
</mask>
<g mask="url(#mask0_623_62773)">
<path d="M0 0H512V512H0V0Z" fill="#D80027"/>
<path d="M245.5 209.199L266.5 238.199L300.5 227.099L279.5 256.099L300.5 284.999L266.5 273.899L245.5 302.899V266.999L211.5 255.899L245.5 244.899V209.199Z" fill="#EEEEEE"/>
<path d="M188.2 328.299C177.213 328.269 166.377 325.734 156.516 320.889C146.655 316.044 138.028 309.014 131.291 300.336C124.553 291.657 119.882 281.556 117.633 270.802C115.383 260.048 115.614 248.922 118.309 238.27C121.003 227.619 126.089 217.721 133.182 209.33C140.274 200.938 149.185 194.273 159.239 189.842C169.293 185.41 180.224 183.328 191.203 183.754C202.182 184.18 212.92 187.102 222.6 192.299C210.073 180.057 194.213 171.783 177.005 168.513C159.797 165.244 142.007 167.125 125.864 173.921C109.72 180.716 95.9404 192.124 86.2511 206.716C76.5617 221.307 71.3933 238.434 71.3933 255.949C71.3933 273.465 76.5617 290.591 86.2511 305.183C95.9404 319.774 109.72 331.182 125.864 337.978C142.007 344.774 159.797 346.655 177.005 343.385C194.213 340.116 210.073 331.842 222.6 319.599C212.039 325.324 200.213 328.314 188.2 328.299Z" fill="#EEEEEE"/>
</g>
</g>
<defs>
<clipPath id="clip0_623_62773">
<rect width="512" height="512" fill="white"/>
</clipPath>
</defs>
</svg>
